<?xml version="1.0" encoding="utf-8"?>
<!-- Generator: Adobe Illustrator 23.0.2, SVG Export Plug-In . SVG Version: 6.00 Build 0)  -->
<svg version="1.1" id="Layer_1" xmlns="http://www.w3.org/2000/svg" xmlns:xlink="http://www.w3.org/1999/xlink" x="0px" y="0px"
	 viewBox="0 0 527 135" style="enable-background:new 0 0 527 135;" xml:space="preserve">
<style type="text/css">
	.st0{fill:#ffff;}
	.st1{fill:#ffff;}
	.st2{fill:#Ffff;}
</style>
<g>
	<path class="st0" d="M95.1,99.8c0,4.1-0.7,7.4-2.1,9.9c-3.7,6.4-13.9,9.6-30.7,9.6H18c-4.4,0-6.7-2.2-6.7-6.7
		c0-5.4,2.2-8.1,6.7-8.1h44.2c5.4,0,8.4-0.1,9.1-0.2c4.3-0.5,6.5-2,6.5-4.3v-6c0-2.3-2.8-3.8-8.5-4.6c-2.2-0.2-6.7-0.4-13.1-0.4
		h-0.5c-13.7,0-23.6-0.9-29.5-2.5c-10-2.5-15.1-8-15.1-16.3v-5.3c0-9.1,4.8-15.2,14.4-17.9c4.7-1.4,50.6-2,62.8-2
		c4.4,0,6.7,2.2,6.7,6.7V53c0,4.4-2.2,6.8-6.7,6.8c-7.3,0-49,0-50.2,0.1c-6.5,0.6-9.7,2.2-9.7,4.9v4.9c0,3,5.7,4.3,17,4.3h17.1
		c8,0,14.9,1.2,20.8,3.8c7.9,3.5,11.8,8.6,11.8,15.7L95.1,99.8L95.1,99.8z"/>
	<path class="st0" d="M308.4,98.5c0,7.6-3.6,13.2-10.7,16.8c-5.3,2.7-11.8,3.9-19.5,3.9H224c-4.4,0-6.7-2.2-6.7-6.7V51.6
		c0-4.4,2.2-6.7,6.7-6.7h52.6c6.2,0,10.9,0.4,14.1,1.1c5.1,1.1,9.4,3.5,12.8,6.9c3.3,3.3,5.1,7.3,5.1,11.8c0,4.7-0.1,7.6-0.5,8.9
		c-0.5,2-2,4.8-4.4,8.3l-0.2,0.2c2.5,2.6,3.9,5.2,4.6,7.8C308.3,91.2,308.4,94.2,308.4,98.5z M291.4,94.3c0-2.3-1.9-3.8-5.4-4.3
		c-1-0.1-3.7-0.2-8.3-0.2h-43.1v14.7h42.3c4.2,0,6.9-0.1,8.4-0.4c3.7-0.6,5.7-2.1,6.2-4.4C291.4,99,291.4,97.3,291.4,94.3z
		 M291.7,70.6c0-0.6-0.1-2.6-0.4-5.8c-0.2-3.5-5.1-5.3-14.4-5.3h-42.2V75h42.7c4.4,0,7.3-0.1,8.4-0.2
		C289.8,74.2,291.7,72.9,291.7,70.6z"/>
	<path class="st0" d="M517,112.6c0,4.4-2.2,6.7-6.7,6.7h-40.2c-10.6,0-18.6-1-23.9-2.8c-8.8-3.1-13.1-9-13.1-17.8V51.4
		c0-4.4,2.2-6.7,6.7-6.7c3.6,0,5.9,0.2,7,0.6c2.3,0.9,3.5,3,3.5,6v47.2c0,2.7,2.7,4.6,8.3,5.3c2.1,0.4,5.9,0.5,11.6,0.5h40.3
		C514.8,104.6,517,107.3,517,112.6z"/>
	<path class="st1" d="M200.4,55.8c0-0.1,0-0.2,0-0.4c0-0.2-0.1-0.5-0.1-0.7c0,0,0-0.1,0-0.2c0-0.2-0.1-0.5-0.2-0.9v-0.1
		c-0.1-0.2-0.1-0.5-0.2-0.7c0-0.1,0-0.1-0.1-0.2c-0.1-0.2-0.2-0.5-0.2-0.6c0-0.1-0.1-0.1-0.1-0.2c-0.1-0.2-0.2-0.4-0.4-0.6
		c-0.1-0.1-0.1-0.2-0.1-0.4c-0.1-0.1-0.2-0.4-0.4-0.5c-0.1-0.1-0.1-0.2-0.2-0.4c-0.1-0.1-0.2-0.4-0.5-0.5c-0.1-0.1-0.1-0.1-0.2-0.2
		c-0.2-0.2-0.4-0.4-0.6-0.6l-0.1-0.1l0,0c-0.2-0.2-0.5-0.4-0.9-0.6c-0.1-0.1-0.4-0.2-0.6-0.4c-0.1,0-0.1-0.1-0.2-0.1
		c-0.2-0.1-0.5-0.2-0.7-0.4h-0.1c-2-0.9-4.1-1-6-0.6H188c-0.2,0-0.6,0.1-0.9,0.2H187c-0.2,0.1-0.5,0.1-0.7,0.2h-0.1
		c-0.2,0.1-0.5,0.2-0.7,0.4h-0.1c-0.2,0.1-0.5,0.2-0.7,0.5c0,0,0,0-0.1,0c-0.2,0.1-0.5,0.4-0.7,0.5c0,0,0,0-0.1,0
		c-0.2,0.2-0.5,0.4-0.7,0.6l0,0c-0.2,0.2-0.4,0.5-0.6,0.6l-34.9,42.1c-3.6,4.3-3,10.9,1.4,14.4c4.3,3.6,10.9,3,14.4-1.4L180,85v26.2
		c0,5.7,4.6,10.2,10.2,10.2c5.7,0,10.2-4.6,10.2-10.2V56.5C200.4,56.2,200.4,56.1,200.4,55.8z"/>
	<path class="st2" d="M134.6,27.7c0,7.8-6.3,14.1-14.1,14.1s-14.1-6.3-14.1-14.1c0-7.8,6.3-14.1,14.1-14.1S134.6,19.9,134.6,27.7z"
		/>
	<path class="st1" d="M204.3,27.7c0,7.8-6.3,14.1-14.1,14.1c-7.8,0-14.1-6.3-14.1-14.1s6.3-14.1,14.1-14.1
		C198,13.7,204.3,19.9,204.3,27.7z"/>
	<path class="st0" d="M405.7,101.4c-8-6.5-16-13.2-24.1-19.9l16.9-14.2l1.7,6.4L413,44.9l-30.8,6.8l6.7,3.3l-19.5,16.4l-30-24.9
		c-0.9-0.7-2-1.5-3.2-1.9c-0.4-0.1-1.7-0.4-3.1-0.4c-1.9-0.1-3,0.1-3.5,0.2c-1.5,0.4-2.7,1.2-3.8,2.2c-1.4,1.2-2,2.6-2,4.3
		c0,2.1,1,4.1,3.1,5.7l29.9,24.9l-31,26c-2.2,1.9-3.3,3.7-3.3,5.4c0,1.9,1.1,3.5,3.3,4.7c2.1,1.1,4.3,1.7,6.9,1.7
		c2.5,0,4.3-0.6,5.7-1.7l31-25.8l30.5,25.8c1.6,1.2,3.6,1.9,6.2,1.9c2.1,0,3.9-0.4,5.7-1.1c2.7-1.2,4.1-2.8,4.1-4.7
		C415.6,111.1,412.3,107,405.7,101.4z"/>
	<path class="st2" d="M144.2,91.2c4.1-4.9,9.1-10.6,9.4-11l-25.2-30.3c-3.6-4.3-10.1-4.9-14.4-1.4c-0.2,0.2-0.5,0.4-0.6,0.6l0,0
		c-0.1,0.1-0.2,0.2-0.2,0.2s0,0-0.1,0c-0.1,0.1-0.1,0.2-0.2,0.2c0,0,0,0-0.1,0.1c-0.1,0.1-0.1,0.2-0.2,0.2c0,0,0,0.1-0.1,0.1
		c-0.1,0.1-0.1,0.1-0.2,0.2l-0.1,0.1c-0.1,0.1-0.1,0.1-0.1,0.2l-0.1,0.1c0,0.1-0.1,0.1-0.1,0.2s-0.1,0.1-0.1,0.2l-0.1,0.1
		c0,0.1-0.1,0.2-0.1,0.4V52c0,0.1-0.1,0.2-0.1,0.4l0,0c0,0.1-0.1,0.2-0.1,0.4l0,0c-0.2,0.6-0.4,1.2-0.5,1.9l0,0c0,0.1,0,0.2,0,0.4
		v0.1c0,0.1,0,0.2,0,0.4s0,0.2,0,0.2s0,0.1,0,0.2l0,0l0,0v55c0,5.7,4.6,10.2,10.2,10.2s10.1-4.6,10.1-10.2V84.8L142.5,99
		C141.7,97.4,141.5,94.7,144.2,91.2z"/>
</g>
</svg>
